# Tiled2Unity generated file. Do not modify by hand.
# Wavefront file for 'onePerfectVillage_mesh_0009.obj'

# Vertices (Count = 548)
v -11 -1 0
v -12 -1 0
v -12 0 0
v -11 0 0
v -20 -1 0
v -21 -1 0
v -21 0 0
v -20 0 0
v -11 -2 0
v -12 -2 0
v -12 -1 0
v -11 -1 0
v -20 -2 0
v -21 -2 0
v -21 -1 0
v -20 -1 0
v -11 -3 0
v -12 -3 0
v -12 -2 0
v -11 -2 0
v -20 -3 0
v -21 -3 0
v -21 -2 0
v -20 -2 0
v -11 -4 0
v -12 -4 0
v -12 -3 0
v -11 -3 0
v -20 -4 0
v -21 -4 0
v -21 -3 0
v -20 -3 0
v -11 -5 0
v -12 -5 0
v -12 -4 0
v -11 -4 0
v -20 -5 0
v -21 -5 0
v -21 -4 0
v -20 -4 0
v -11 -6 0
v -12 -6 0
v -12 -5 0
v -11 -5 0
v -20 -6 0
v -21 -6 0
v -21 -5 0
v -20 -5 0
v -11 -7 0
v -12 -7 0
v -12 -6 0
v -11 -6 0
v -20 -7 0
v -21 -7 0
v -21 -6 0
v -20 -6 0
v -11 -8 0
v -12 -8 0
v -12 -7 0
v -11 -7 0
v -11 -9 0
v -12 -9 0
v -12 -8 0
v -11 -8 0
v -11 -10 0
v -12 -10 0
v -12 -9 0
v -11 -9 0
v -11 -11 0
v -12 -11 0
v -12 -10 0
v -11 -10 0
v -8 -12 0
v -9 -12 0
v -9 -11 0
v -8 -11 0
v -9 -12 0
v -10 -12 0
v -10 -11 0
v -9 -11 0
v -10 -12 0
v -11 -12 0
v -11 -11 0
v -10 -11 0
v -11 -12 0
v -12 -12 0
v -12 -11 0
v -11 -11 0
v -12 -12 0
v -13 -12 0
v -13 -11 0
v -12 -11 0
v -13 -12 0
v -14 -12 0
v -14 -11 0
v -13 -11 0
v -32 -12 0
v -33 -12 0
v -33 -11 0
v -32 -11 0
v -8 -13 0
v -9 -13 0
v -9 -12 0
v -8 -12 0
v -9 -13 0
v -10 -13 0
v -10 -12 0
v -9 -12 0
v -10 -13 0
v -11 -13 0
v -11 -12 0
v -10 -12 0
v -11 -13 0
v -12 -13 0
v -12 -12 0
v -11 -12 0
v -12 -13 0
v -13 -13 0
v -13 -12 0
v -12 -12 0
v -13 -13 0
v -14 -13 0
v -14 -12 0
v -13 -12 0
v -32 -13 0
v -33 -13 0
v -33 -12 0
v -32 -12 0
v -13 -14 0
v -14 -14 0
v -14 -13 0
v -13 -13 0
v -32 -14 0
v -33 -14 0
v -33 -13 0
v -32 -13 0
v -13 -15 0
v -14 -15 0
v -14 -14 0
v -13 -14 0
v -40 -16 0
v -41 -16 0
v -41 -15 0
v -40 -15 0
v -44 -16 0
v -45 -16 0
v -45 -15 0
v -44 -15 0
v -40 -17 0
v -41 -17 0
v -41 -16 0
v -40 -16 0
v -44 -17 0
v -45 -17 0
v -45 -16 0
v -44 -16 0
v -21 -18 0
v -22 -18 0
v -22 -17 0
v -21 -17 0
v -22 -18 0
v -23 -18 0
v -23 -17 0
v -22 -17 0
v -23 -18 0
v -24 -18 0
v -24 -17 0
v -23 -17 0
v -40 -18 0
v -41 -18 0
v -41 -17 0
v -40 -17 0
v -44 -18 0
v -45 -18 0
v -45 -17 0
v -44 -17 0
v -21 -19 0
v -22 -19 0
v -22 -18 0
v -21 -18 0
v -22 -19 0
v -23 -19 0
v -23 -18 0
v -22 -18 0
v -23 -19 0
v -24 -19 0
v -24 -18 0
v -23 -18 0
v -44 -19 0
v -45 -19 0
v -45 -18 0
v -44 -18 0
v -7 -20 0
v -8 -20 0
v -8 -19 0
v -7 -19 0
v -8 -20 0
v -9 -20 0
v -9 -19 0
v -8 -19 0
v -9 -20 0
v -10 -20 0
v -10 -19 0
v -9 -19 0
v -21 -20 0
v -22 -20 0
v -22 -19 0
v -21 -19 0
v -22 -20 0
v -23 -20 0
v -23 -19 0
v -22 -19 0
v -23 -20 0
v -24 -20 0
v -24 -19 0
v -23 -19 0
v -7 -21 0
v -8 -21 0
v -8 -20 0
v -7 -20 0
v -8 -21 0
v -9 -21 0
v -9 -20 0
v -8 -20 0
v -9 -21 0
v -10 -21 0
v -10 -20 0
v -9 -20 0
v -28 -21 0
v -29 -21 0
v -29 -20 0
v -28 -20 0
v -7 -22 0
v -8 -22 0
v -8 -21 0
v -7 -21 0
v -8 -22 0
v -9 -22 0
v -9 -21 0
v -8 -21 0
v -9 -22 0
v -10 -22 0
v -10 -21 0
v -9 -21 0
v -28 -22 0
v -29 -22 0
v -29 -21 0
v -28 -21 0
v -28 -23 0
v -29 -23 0
v -29 -22 0
v -28 -22 0
v -24 -24 0
v -25 -24 0
v -25 -23 0
v -24 -23 0
v -28 -24 0
v -29 -24 0
v -29 -23 0
v -28 -23 0
v -38 -24 0
v -39 -24 0
v -39 -23 0
v -38 -23 0
v -24 -25 0
v -25 -25 0
v -25 -24 0
v -24 -24 0
v -28 -25 0
v -29 -25 0
v -29 -24 0
v -28 -24 0
v -38 -25 0
v -39 -25 0
v -39 -24 0
v -38 -24 0
v -24 -26 0
v -25 -26 0
v -25 -25 0
v -24 -25 0
v -28 -26 0
v -29 -26 0
v -29 -25 0
v -28 -25 0
v -38 -26 0
v -39 -26 0
v -39 -25 0
v -38 -25 0
v -24 -27 0
v -25 -27 0
v -25 -26 0
v -24 -26 0
v -28 -27 0
v -29 -27 0
v -29 -26 0
v -28 -26 0
v -38 -27 0
v -39 -27 0
v -39 -26 0
v -38 -26 0
v -24 -28 0
v -25 -28 0
v -25 -27 0
v -24 -27 0
v -28 -28 0
v -29 -28 0
v -29 -27 0
v -28 -27 0
v -38 -28 0
v -39 -28 0
v -39 -27 0
v -38 -27 0
v -24 -29 0
v -25 -29 0
v -25 -28 0
v -24 -28 0
v -28 -29 0
v -29 -29 0
v -29 -28 0
v -28 -28 0
v -38 -29 0
v -39 -29 0
v -39 -28 0
v -38 -28 0
v -38 -30 0
v -39 -30 0
v -39 -29 0
v -38 -29 0
v -15 -36 0
v -16 -36 0
v -16 -35 0
v -15 -35 0
v -16 -36 0
v -17 -36 0
v -17 -35 0
v -16 -35 0
v -17 -36 0
v -18 -36 0
v -18 -35 0
v -17 -35 0
v -18 -36 0
v -19 -36 0
v -19 -35 0
v -18 -35 0
v -19 -36 0
v -20 -36 0
v -20 -35 0
v -19 -35 0
v -15 -37 0
v -16 -37 0
v -16 -36 0
v -15 -36 0
v -16 -37 0
v -17 -37 0
v -17 -36 0
v -16 -36 0
v -17 -37 0
v -18 -37 0
v -18 -36 0
v -17 -36 0
v -18 -37 0
v -19 -37 0
v -19 -36 0
v -18 -36 0
v -19 -37 0
v -20 -37 0
v -20 -36 0
v -19 -36 0
v -20 -37 0
v -21 -37 0
v -21 -36 0
v -20 -36 0
v -21 -37 0
v -22 -37 0
v -22 -36 0
v -21 -36 0
v -22 -37 0
v -23 -37 0
v -23 -36 0
v -22 -36 0
v -23 -37 0
v -24 -37 0
v -24 -36 0
v -23 -36 0
v -47 -42 0
v -48 -42 0
v -48 -41 0
v -47 -41 0
v -48 -42 0
v -49 -42 0
v -49 -41 0
v -48 -41 0
v -49 -42 0
v -50 -42 0
v -50 -41 0
v -49 -41 0
v -45 -43 0
v -46 -43 0
v -46 -42 0
v -45 -42 0
v -46 -43 0
v -47 -43 0
v -47 -42 0
v -46 -42 0
v -47 -43 0
v -48 -43 0
v -48 -42 0
v -47 -42 0
v -31 -47 0
v -32 -47 0
v -32 -46 0
v -31 -46 0
v -32 -47 0
v -33 -47 0
v -33 -46 0
v -32 -46 0
v -33 -47 0
v -34 -47 0
v -34 -46 0
v -33 -46 0
v -34 -47 0
v -35 -47 0
v -35 -46 0
v -34 -46 0
v -35 -47 0
v -36 -47 0
v -36 -46 0
v -35 -46 0
v -39 -47 0
v -40 -47 0
v -40 -46 0
v -39 -46 0
v -40 -47 0
v -41 -47 0
v -41 -46 0
v -40 -46 0
v -41 -47 0
v -42 -47 0
v -42 -46 0
v -41 -46 0
v -42 -47 0
v -43 -47 0
v -43 -46 0
v -42 -46 0
v -43 -47 0
v -44 -47 0
v -44 -46 0
v -43 -46 0
v -23 -48 0
v -24 -48 0
v -24 -47 0
v -23 -47 0
v -24 -48 0
v -25 -48 0
v -25 -47 0
v -24 -47 0
v -25 -48 0
v -26 -48 0
v -26 -47 0
v -25 -47 0
v -26 -48 0
v -27 -48 0
v -27 -47 0
v -26 -47 0
v -27 -48 0
v -28 -48 0
v -28 -47 0
v -27 -47 0
v -31 -48 0
v -32 -48 0
v -32 -47 0
v -31 -47 0
v -32 -48 0
v -33 -48 0
v -33 -47 0
v -32 -47 0
v -33 -48 0
v -34 -48 0
v -34 -47 0
v -33 -47 0
v -34 -48 0
v -35 -48 0
v -35 -47 0
v -34 -47 0
v -35 -48 0
v -36 -48 0
v -36 -47 0
v -35 -47 0
v -39 -48 0
v -40 -48 0
v -40 -47 0
v -39 -47 0
v -40 -48 0
v -41 -48 0
v -41 -47 0
v -40 -47 0
v -41 -48 0
v -42 -48 0
v -42 -47 0
v -41 -47 0
v -42 -48 0
v -43 -48 0
v -43 -47 0
v -42 -47 0
v -43 -48 0
v -44 -48 0
v -44 -47 0
v -43 -47 0
v -23 -49 0
v -24 -49 0
v -24 -48 0
v -23 -48 0
v -24 -49 0
v -25 -49 0
v -25 -48 0
v -24 -48 0
v -25 -49 0
v -26 -49 0
v -26 -48 0
v -25 -48 0
v -26 -49 0
v -27 -49 0
v -27 -48 0
v -26 -48 0
v -27 -49 0
v -28 -49 0
v -28 -48 0
v -27 -48 0
v -23 -50 0
v -24 -50 0
v -24 -49 0
v -23 -49 0
v -24 -50 0
v -25 -50 0
v -25 -49 0
v -24 -49 0
v -25 -50 0
v -26 -50 0
v -26 -49 0
v -25 -49 0
v -26 -50 0
v -27 -50 0
v -27 -49 0
v -26 -49 0
v -27 -50 0
v -28 -50 0
v -28 -49 0
v -27 -49 0

# Texture cooridinates (Count = 83)
vt 0.75 0.9666666
vt 0.7571428 0.9666666
vt 0.7571428 0.9733334
vt 0.75 0.9733334
vt 0.7214286 0.96
vt 0.7285714 0.96
vt 0.7285714 0.9666666
vt 0.7214286 0.9666666
vt 0.75 0.96
vt 0.7571428 0.96
vt 0.7285714 0.9733334
vt 0.7214286 0.9733334
vt 0.7214286 0.98
vt 0.7285714 0.98
vt 0.7285714 0.9866667
vt 0.7214286 0.9866667
vt 0.75 0.9866667
vt 0.7571428 0.9866667
vt 0.7571428 0.9933333
vt 0.75 0.9933333
vt 0.75 0.98
vt 0.7571428 0.98
vt 0.2857143 0.4133334
vt 0.2928571 0.4133334
vt 0.2928571 0.42
vt 0.2857143 0.42
vt 0.3 0.4133334
vt 0.3 0.42
vt 0.3071429 0.4133334
vt 0.3071429 0.42
vt 0.3142857 0.4133334
vt 0.3142857 0.42
vt 0.3214286 0.4133334
vt 0.3214286 0.42
vt 0.3285714 0.4133334
vt 0.3285714 0.42
vt 0.2857143 0.4066667
vt 0.2928571 0.4066667
vt 0.3 0.4066667
vt 0.3071429 0.4066667
vt 0.3142857 0.4066667
vt 0.3214286 0.4066667
vt 0.3285714 0.4066667
vt 0.7285714 0.9933333
vt 0.7214286 0.9933333
vt 0.3214286 0.4
vt 0.3285714 0.4
vt 0.3214286 0.3933333
vt 0.3285714 0.3933333
vt 0.02857143 0.9933333
vt 0.03571429 0.9933333
vt 0.03571429 1
vt 0.02857143 1
vt 0.04285714 0.9933333
vt 0.04285714 1
vt 0.05 0.9933333
vt 0.05 1
vt 0.02857143 0.9866667
vt 0.03571429 0.9866667
vt 0.04285714 0.9866667
vt 0.05 0.9866667
vt 0.02857143 0.98
vt 0.03571429 0.98
vt 0.04285714 0.98
vt 0.05 0.98
vt 0.7571428 1
vt 0.75 1
vt 0.7285714 1
vt 0.7214286 1
vt 0.7357143 0.9933333
vt 0.7357143 1
vt 0.7428572 0.9933333
vt 0.7428572 1
vt 0.7357143 0.9666666
vt 0.7357143 0.9733334
vt 0.7428572 0.9666666
vt 0.7428572 0.9733334
vt 0.7357143 0.98
vt 0.7357143 0.9866667
vt 0.7428572 0.98
vt 0.7428572 0.9866667
vt 0.7357143 0.96
vt 0.7428572 0.96

# Normal
vn 0 0 -1

# Mesh description
g onePerfectVillage_mesh_0009

# Faces
f 1/1/1 2/2/1 3/3/1 4/4/1
f 5/5/1 6/6/1 7/7/1 8/8/1
f 9/9/1 10/10/1 11/2/1 12/1/1
f 13/8/1 14/7/1 15/11/1 16/12/1
f 17/1/1 18/2/1 19/3/1 20/4/1
f 21/5/1 22/6/1 23/7/1 24/8/1
f 25/9/1 26/10/1 27/2/1 28/1/1
f 29/8/1 30/7/1 31/11/1 32/12/1
f 33/1/1 34/2/1 35/3/1 36/4/1
f 37/5/1 38/6/1 39/7/1 40/8/1
f 41/9/1 42/10/1 43/2/1 44/1/1
f 45/13/1 46/14/1 47/15/1 48/16/1
f 49/1/1 50/2/1 51/3/1 52/4/1
f 53/12/1 54/11/1 55/14/1 56/13/1
f 57/9/1 58/10/1 59/2/1 60/1/1
f 61/17/1 62/18/1 63/19/1 64/20/1
f 65/21/1 66/22/1 67/18/1 68/17/1
f 69/4/1 70/3/1 71/22/1 72/21/1
f 73/23/1 74/24/1 75/25/1 76/26/1
f 77/24/1 78/27/1 79/28/1 80/25/1
f 81/27/1 82/29/1 83/30/1 84/28/1
f 85/29/1 86/31/1 87/32/1 88/30/1
f 89/31/1 90/33/1 91/34/1 92/32/1
f 93/33/1 94/35/1 95/36/1 96/34/1
f 97/13/1 98/14/1 99/15/1 100/16/1
f 101/37/1 102/38/1 103/24/1 104/23/1
f 105/38/1 106/39/1 107/27/1 108/24/1
f 109/39/1 110/40/1 111/29/1 112/27/1
f 113/40/1 114/41/1 115/31/1 116/29/1
f 117/41/1 118/42/1 119/33/1 120/31/1
f 121/42/1 122/43/1 123/35/1 124/33/1
f 125/16/1 126/15/1 127/44/1 128/45/1
f 129/46/1 130/47/1 131/43/1 132/42/1
f 133/13/1 134/14/1 135/15/1 136/16/1
f 137/48/1 138/49/1 139/47/1 140/46/1
f 141/8/1 142/7/1 143/11/1 144/12/1
f 145/1/1 146/2/1 147/3/1 148/4/1
f 149/5/1 150/6/1 151/7/1 152/8/1
f 153/9/1 154/10/1 155/2/1 156/1/1
f 157/50/1 158/51/1 159/52/1 160/53/1
f 161/51/1 162/54/1 163/55/1 164/52/1
f 165/54/1 166/56/1 167/57/1 168/55/1
f 169/13/1 170/14/1 171/15/1 172/16/1
f 173/21/1 174/22/1 175/18/1 176/17/1
f 177/58/1 178/59/1 179/51/1 180/50/1
f 181/59/1 182/60/1 183/54/1 184/51/1
f 185/60/1 186/61/1 187/56/1 188/54/1
f 189/4/1 190/3/1 191/22/1 192/21/1
f 193/50/1 194/51/1 195/52/1 196/53/1
f 197/51/1 198/54/1 199/55/1 200/52/1
f 201/54/1 202/56/1 203/57/1 204/55/1
f 205/62/1 206/63/1 207/59/1 208/58/1
f 209/63/1 210/64/1 211/60/1 212/59/1
f 213/64/1 214/65/1 215/61/1 216/60/1
f 217/58/1 218/59/1 219/51/1 220/50/1
f 221/59/1 222/60/1 223/54/1 224/51/1
f 225/60/1 226/61/1 227/56/1 228/54/1
f 229/20/1 230/19/1 231/66/1 232/67/1
f 233/62/1 234/63/1 235/59/1 236/58/1
f 237/63/1 238/64/1 239/60/1 240/59/1
f 241/64/1 242/65/1 243/61/1 244/60/1
f 245/1/1 246/2/1 247/3/1 248/4/1
f 249/9/1 250/10/1 251/2/1 252/1/1
f 253/8/1 254/7/1 255/11/1 256/12/1
f 257/1/1 258/2/1 259/3/1 260/4/1
f 261/45/1 262/44/1 263/68/1 264/69/1
f 265/5/1 266/6/1 267/7/1 268/8/1
f 269/9/1 270/10/1 271/2/1 272/1/1
f 273/16/1 274/15/1 275/44/1 276/45/1
f 277/8/1 278/7/1 279/11/1 280/12/1
f 281/1/1 282/2/1 283/3/1 284/4/1
f 285/8/1 286/7/1 287/11/1 288/12/1
f 289/5/1 290/6/1 291/7/1 292/8/1
f 293/9/1 294/10/1 295/2/1 296/1/1
f 297/5/1 298/6/1 299/7/1 300/8/1
f 301/13/1 302/14/1 303/15/1 304/16/1
f 305/21/1 306/22/1 307/18/1 308/17/1
f 309/8/1 310/7/1 311/11/1 312/12/1
f 313/12/1 314/11/1 315/14/1 316/13/1
f 317/4/1 318/3/1 319/22/1 320/21/1
f 321/5/1 322/6/1 323/7/1 324/8/1
f 325/13/1 326/14/1 327/15/1 328/16/1
f 329/45/1 330/44/1 331/68/1 332/69/1
f 333/44/1 334/70/1 335/71/1 336/68/1
f 337/70/1 338/72/1 339/73/1 340/71/1
f 341/72/1 342/20/1 343/67/1 344/73/1
f 345/20/1 346/19/1 347/66/1 348/67/1
f 349/8/1 350/7/1 351/11/1 352/12/1
f 353/7/1 354/74/1 355/75/1 356/11/1
f 357/74/1 358/76/1 359/77/1 360/75/1
f 361/76/1 362/1/1 363/4/1 364/77/1
f 365/1/1 366/2/1 367/3/1 368/4/1
f 369/14/1 370/78/1 371/79/1 372/15/1
f 373/78/1 374/80/1 375/81/1 376/79/1
f 377/80/1 378/21/1 379/17/1 380/81/1
f 381/21/1 382/22/1 383/18/1 384/17/1
f 385/45/1 386/44/1 387/68/1 388/69/1
f 389/44/1 390/70/1 391/71/1 392/68/1
f 393/70/1 394/72/1 395/73/1 396/71/1
f 397/78/1 398/80/1 399/81/1 400/79/1
f 401/80/1 402/21/1 403/17/1 404/81/1
f 405/21/1 406/22/1 407/18/1 408/17/1
f 409/45/1 410/44/1 411/68/1 412/69/1
f 413/44/1 414/70/1 415/71/1 416/68/1
f 417/70/1 418/72/1 419/73/1 420/71/1
f 421/72/1 422/20/1 423/67/1 424/73/1
f 425/20/1 426/19/1 427/66/1 428/67/1
f 429/45/1 430/44/1 431/68/1 432/69/1
f 433/44/1 434/70/1 435/71/1 436/68/1
f 437/70/1 438/72/1 439/73/1 440/71/1
f 441/72/1 442/20/1 443/67/1 444/73/1
f 445/20/1 446/19/1 447/66/1 448/67/1
f 449/45/1 450/44/1 451/68/1 452/69/1
f 453/44/1 454/70/1 455/71/1 456/68/1
f 457/70/1 458/72/1 459/73/1 460/71/1
f 461/72/1 462/20/1 463/67/1 464/73/1
f 465/20/1 466/19/1 467/66/1 468/67/1
f 469/16/1 470/15/1 471/44/1 472/45/1
f 473/15/1 474/79/1 475/70/1 476/44/1
f 477/79/1 478/81/1 479/72/1 480/70/1
f 481/81/1 482/17/1 483/20/1 484/72/1
f 485/17/1 486/18/1 487/19/1 488/20/1
f 489/16/1 490/15/1 491/44/1 492/45/1
f 493/15/1 494/79/1 495/70/1 496/44/1
f 497/79/1 498/81/1 499/72/1 500/70/1
f 501/81/1 502/17/1 503/20/1 504/72/1
f 505/17/1 506/18/1 507/19/1 508/20/1
f 509/8/1 510/7/1 511/11/1 512/12/1
f 513/7/1 514/74/1 515/75/1 516/11/1
f 517/74/1 518/76/1 519/77/1 520/75/1
f 521/76/1 522/1/1 523/4/1 524/77/1
f 525/1/1 526/2/1 527/3/1 528/4/1
f 529/5/1 530/6/1 531/7/1 532/8/1
f 533/6/1 534/82/1 535/74/1 536/7/1
f 537/82/1 538/83/1 539/76/1 540/74/1
f 541/83/1 542/9/1 543/1/1 544/76/1
f 545/9/1 546/10/1 547/2/1 548/1/1

