# Tiled2Unity generated file. Do not modify by hand.
# Wavefront file for 'first_house_mesh_0003.obj'

# Vertices (Count = 144)
v -2 -5 0
v -3 -5 0
v -3 -4 0
v -2 -4 0
v -17 -5 0
v -18 -5 0
v -18 -4 0
v -17 -4 0
v -2 -6 0
v -3 -6 0
v -3 -5 0
v -2 -5 0
v -17 -6 0
v -18 -6 0
v -18 -5 0
v -17 -5 0
v -17 -7 0
v -18 -7 0
v -18 -6 0
v -17 -6 0
v -17 -8 0
v -18 -8 0
v -18 -7 0
v -17 -7 0
v -17 -9 0
v -18 -9 0
v -18 -8 0
v -17 -8 0
v -17 -10 0
v -18 -10 0
v -18 -9 0
v -17 -9 0
v -17 -11 0
v -18 -11 0
v -18 -10 0
v -17 -10 0
v -17 -12 0
v -18 -12 0
v -18 -11 0
v -17 -11 0
v -2 -13 0
v -3 -13 0
v -3 -12 0
v -2 -12 0
v -3 -13 0
v -4 -13 0
v -4 -12 0
v -3 -12 0
v -4 -13 0
v -5 -13 0
v -5 -12 0
v -4 -12 0
v -7 -13 0
v -8 -13 0
v -8 -12 0
v -7 -12 0
v -8 -13 0
v -9 -13 0
v -9 -12 0
v -8 -12 0
v -9 -13 0
v -10 -13 0
v -10 -12 0
v -9 -12 0
v -10 -13 0
v -11 -13 0
v -11 -12 0
v -10 -12 0
v -17 -13 0
v -18 -13 0
v -18 -12 0
v -17 -12 0
v -2 -14 0
v -3 -14 0
v -3 -13 0
v -2 -13 0
v -3 -14 0
v -4 -14 0
v -4 -13 0
v -3 -13 0
v -4 -14 0
v -5 -14 0
v -5 -13 0
v -4 -13 0
v -7 -14 0
v -8 -14 0
v -8 -13 0
v -7 -13 0
v -8 -14 0
v -9 -14 0
v -9 -13 0
v -8 -13 0
v -9 -14 0
v -10 -14 0
v -10 -13 0
v -9 -13 0
v -10 -14 0
v -11 -14 0
v -11 -13 0
v -10 -13 0
v -12 -14 0
v -13 -14 0
v -13 -13 0
v -12 -13 0
v -15 -14 0
v -16 -14 0
v -16 -13 0
v -15 -13 0
v -17 -14 0
v -18 -14 0
v -18 -13 0
v -17 -13 0
v -12 -15 0
v -13 -15 0
v -13 -14 0
v -12 -14 0
v -17 -15 0
v -18 -15 0
v -18 -14 0
v -17 -14 0
v -16 -16 0
v -17 -16 0
v -17 -15 0
v -16 -15 0
v -17 -16 0
v -18 -16 0
v -18 -15 0
v -17 -15 0
v -12 -17 0
v -13 -17 0
v -13 -16 0
v -12 -16 0
v -13 -17 0
v -14 -17 0
v -14 -16 0
v -13 -16 0
v -15 -17 0
v -16 -17 0
v -16 -16 0
v -15 -16 0
v -16 -17 0
v -17 -17 0
v -17 -16 0
v -16 -16 0

# Texture cooridinates (Count = 30)
vt 0.2820513 0.9473684
vt 0.3076923 0.9473684
vt 0.3076923 1
vt 0.2820513 1
vt 0.4358974 0.8947368
vt 0.4615385 0.8947368
vt 0.4615385 0.9473684
vt 0.4358974 0.9473684
vt 0.1538462 0.8947368
vt 0.1794872 0.8947368
vt 0.1794872 0.9473684
vt 0.1538462 0.9473684
vt 0.1538462 0.8421053
vt 0.1794872 0.8421053
vt 0.8717949 0.5263158
vt 0.8974359 0.5263158
vt 0.8974359 0.5789474
vt 0.8717949 0.5789474
vt 0.3846154 0.3157895
vt 0.4102564 0.3157895
vt 0.4102564 0.3684211
vt 0.3846154 0.3684211
vt 0.8717949 0.4736842
vt 0.8974359 0.4736842
vt 0.2564103 0.7894737
vt 0.2820513 0.7894737
vt 0.2820513 0.8421053
vt 0.2564103 0.8421053
vt 0.3076923 0.7894737
vt 0.3076923 0.8421053

# Normal
vn 0 0 -1

# Mesh description
g first_house_mesh_0003

# Faces
f 1/1/1 2/2/1 3/3/1 4/4/1
f 5/5/1 6/6/1 7/7/1 8/8/1
f 9/1/1 10/2/1 11/3/1 12/4/1
f 13/5/1 14/6/1 15/7/1 16/8/1
f 17/5/1 18/6/1 19/7/1 20/8/1
f 21/5/1 22/6/1 23/7/1 24/8/1
f 25/5/1 26/6/1 27/7/1 28/8/1
f 29/5/1 30/6/1 31/7/1 32/8/1
f 33/5/1 34/6/1 35/7/1 36/8/1
f 37/5/1 38/6/1 39/7/1 40/8/1
f 41/9/1 42/10/1 43/11/1 44/12/1
f 45/9/1 46/10/1 47/11/1 48/12/1
f 49/9/1 50/10/1 51/11/1 52/12/1
f 53/9/1 54/10/1 55/11/1 56/12/1
f 57/9/1 58/10/1 59/11/1 60/12/1
f 61/9/1 62/10/1 63/11/1 64/12/1
f 65/9/1 66/10/1 67/11/1 68/12/1
f 69/5/1 70/6/1 71/7/1 72/8/1
f 73/13/1 74/14/1 75/10/1 76/9/1
f 77/13/1 78/14/1 79/10/1 80/9/1
f 81/13/1 82/14/1 83/10/1 84/9/1
f 85/13/1 86/14/1 87/10/1 88/9/1
f 89/13/1 90/14/1 91/10/1 92/9/1
f 93/13/1 94/14/1 95/10/1 96/9/1
f 97/13/1 98/14/1 99/10/1 100/9/1
f 101/15/1 102/16/1 103/17/1 104/18/1
f 105/19/1 106/20/1 107/21/1 108/22/1
f 109/5/1 110/6/1 111/7/1 112/8/1
f 113/23/1 114/24/1 115/16/1 116/15/1
f 117/5/1 118/6/1 119/7/1 120/8/1
f 121/19/1 122/20/1 123/21/1 124/22/1
f 125/5/1 126/6/1 127/7/1 128/8/1
f 129/25/1 130/26/1 131/27/1 132/28/1
f 133/26/1 134/29/1 135/30/1 136/27/1
f 137/25/1 138/26/1 139/27/1 140/28/1
f 141/26/1 142/29/1 143/30/1 144/27/1

