# Tiled2Unity generated file. Do not modify by hand.
# Wavefront file for 'first_house_mesh_0002.obj'

# Vertices (Count = 288)
v -2 -4 0
v -3 -4 0
v -3 -3 0
v -2 -3 0
v -3 -4 0
v -4 -4 0
v -4 -3 0
v -3 -3 0
v -4 -4 0
v -5 -4 0
v -5 -3 0
v -4 -3 0
v -5 -4 0
v -6 -4 0
v -6 -3 0
v -5 -3 0
v -6 -4 0
v -7 -4 0
v -7 -3 0
v -6 -3 0
v -7 -4 0
v -8 -4 0
v -8 -3 0
v -7 -3 0
v -8 -4 0
v -9 -4 0
v -9 -3 0
v -8 -3 0
v -9 -4 0
v -10 -4 0
v -10 -3 0
v -9 -3 0
v -10 -4 0
v -11 -4 0
v -11 -3 0
v -10 -3 0
v -11 -4 0
v -12 -4 0
v -12 -3 0
v -11 -3 0
v -12 -4 0
v -13 -4 0
v -13 -3 0
v -12 -3 0
v -13 -4 0
v -14 -4 0
v -14 -3 0
v -13 -3 0
v -14 -4 0
v -15 -4 0
v -15 -3 0
v -14 -3 0
v -15 -4 0
v -16 -4 0
v -16 -3 0
v -15 -3 0
v -16 -4 0
v -17 -4 0
v -17 -3 0
v -16 -3 0
v -17 -4 0
v -18 -4 0
v -18 -3 0
v -17 -3 0
v -2 -5 0
v -3 -5 0
v -3 -4 0
v -2 -4 0
v -3 -5 0
v -4 -5 0
v -4 -4 0
v -3 -4 0
v -4 -5 0
v -5 -5 0
v -5 -4 0
v -4 -4 0
v -5 -5 0
v -6 -5 0
v -6 -4 0
v -5 -4 0
v -6 -5 0
v -7 -5 0
v -7 -4 0
v -6 -4 0
v -7 -5 0
v -8 -5 0
v -8 -4 0
v -7 -4 0
v -8 -5 0
v -9 -5 0
v -9 -4 0
v -8 -4 0
v -9 -5 0
v -10 -5 0
v -10 -4 0
v -9 -4 0
v -10 -5 0
v -11 -5 0
v -11 -4 0
v -10 -4 0
v -11 -5 0
v -12 -5 0
v -12 -4 0
v -11 -4 0
v -12 -5 0
v -13 -5 0
v -13 -4 0
v -12 -4 0
v -13 -5 0
v -14 -5 0
v -14 -4 0
v -13 -4 0
v -14 -5 0
v -15 -5 0
v -15 -4 0
v -14 -4 0
v -15 -5 0
v -16 -5 0
v -16 -4 0
v -15 -4 0
v -16 -5 0
v -17 -5 0
v -17 -4 0
v -16 -4 0
v -17 -5 0
v -18 -5 0
v -18 -4 0
v -17 -4 0
v -2 -6 0
v -3 -6 0
v -3 -5 0
v -2 -5 0
v -3 -6 0
v -4 -6 0
v -4 -5 0
v -3 -5 0
v -4 -6 0
v -5 -6 0
v -5 -5 0
v -4 -5 0
v -5 -6 0
v -6 -6 0
v -6 -5 0
v -5 -5 0
v -6 -6 0
v -7 -6 0
v -7 -5 0
v -6 -5 0
v -7 -6 0
v -8 -6 0
v -8 -5 0
v -7 -5 0
v -8 -6 0
v -9 -6 0
v -9 -5 0
v -8 -5 0
v -9 -6 0
v -10 -6 0
v -10 -5 0
v -9 -5 0
v -10 -6 0
v -11 -6 0
v -11 -5 0
v -10 -5 0
v -11 -6 0
v -12 -6 0
v -12 -5 0
v -11 -5 0
v -12 -6 0
v -13 -6 0
v -13 -5 0
v -12 -5 0
v -13 -6 0
v -14 -6 0
v -14 -5 0
v -13 -5 0
v -14 -6 0
v -15 -6 0
v -15 -5 0
v -14 -5 0
v -15 -6 0
v -16 -6 0
v -16 -5 0
v -15 -5 0
v -16 -6 0
v -17 -6 0
v -17 -5 0
v -16 -5 0
v -17 -6 0
v -18 -6 0
v -18 -5 0
v -17 -5 0
v -2 -7 0
v -3 -7 0
v -3 -6 0
v -2 -6 0
v -2 -8 0
v -3 -8 0
v -3 -7 0
v -2 -7 0
v -2 -9 0
v -3 -9 0
v -3 -8 0
v -2 -8 0
v -2 -10 0
v -3 -10 0
v -3 -9 0
v -2 -9 0
v -2 -11 0
v -3 -11 0
v -3 -10 0
v -2 -10 0
v -11 -12 0
v -12 -12 0
v -12 -11 0
v -11 -11 0
v -11 -13 0
v -12 -13 0
v -12 -12 0
v -11 -12 0
v -11 -14 0
v -12 -14 0
v -12 -13 0
v -11 -13 0
v -11 -15 0
v -12 -15 0
v -12 -14 0
v -11 -14 0
v -11 -16 0
v -12 -16 0
v -12 -15 0
v -11 -15 0
v -11 -18 0
v -12 -18 0
v -12 -17 0
v -11 -17 0
v -12 -18 0
v -13 -18 0
v -13 -17 0
v -12 -17 0
v -13 -18 0
v -14 -18 0
v -14 -17 0
v -13 -17 0
v -14 -18 0
v -15 -18 0
v -15 -17 0
v -14 -17 0
v -15 -18 0
v -16 -18 0
v -16 -17 0
v -15 -17 0
v -16 -18 0
v -17 -18 0
v -17 -17 0
v -16 -17 0
v -17 -18 0
v -18 -18 0
v -18 -17 0
v -17 -17 0
v -11 -19 0
v -12 -19 0
v -12 -18 0
v -11 -18 0
v -12 -19 0
v -13 -19 0
v -13 -18 0
v -12 -18 0
v -13 -19 0
v -14 -19 0
v -14 -18 0
v -13 -18 0
v -14 -19 0
v -15 -19 0
v -15 -18 0
v -14 -18 0
v -15 -19 0
v -16 -19 0
v -16 -18 0
v -15 -18 0
v -16 -19 0
v -17 -19 0
v -17 -18 0
v -16 -18 0
v -17 -19 0
v -18 -19 0
v -18 -18 0
v -17 -18 0

# Texture cooridinates (Count = 25)
vt 0.4871795 0.9473684
vt 0.5128205 0.9473684
vt 0.5128205 1
vt 0.4871795 1
vt 0.2307692 0.9473684
vt 0.2564103 0.9473684
vt 0.2564103 1
vt 0.2307692 1
vt 0.1282051 0.7894737
vt 0.1538462 0.7894737
vt 0.1538462 0.8421053
vt 0.1282051 0.8421053
vt 0.2307692 0.8947368
vt 0.2564103 0.8947368
vt 0.2307692 0.8421053
vt 0.2564103 0.8421053
vt 0.4102564 0.8947368
vt 0.4358974 0.8947368
vt 0.4358974 0.9473684
vt 0.4102564 0.9473684
vt 0.1538462 0.8947368
vt 0.1794872 0.8947368
vt 0.1794872 0.9473684
vt 0.1538462 0.9473684
vt 0.1794872 0.8421053

# Normal
vn 0 0 -1

# Mesh description
g first_house_mesh_0002

# Faces
f 1/1/1 2/2/1 3/3/1 4/4/1
f 5/5/1 6/6/1 7/7/1 8/8/1
f 9/5/1 10/6/1 11/7/1 12/8/1
f 13/5/1 14/6/1 15/7/1 16/8/1
f 17/5/1 18/6/1 19/7/1 20/8/1
f 21/5/1 22/6/1 23/7/1 24/8/1
f 25/5/1 26/6/1 27/7/1 28/8/1
f 29/5/1 30/6/1 31/7/1 32/8/1
f 33/5/1 34/6/1 35/7/1 36/8/1
f 37/5/1 38/6/1 39/7/1 40/8/1
f 41/5/1 42/6/1 43/7/1 44/8/1
f 45/5/1 46/6/1 47/7/1 48/8/1
f 49/5/1 50/6/1 51/7/1 52/8/1
f 53/5/1 54/6/1 55/7/1 56/8/1
f 57/5/1 58/6/1 59/7/1 60/8/1
f 61/9/1 62/10/1 63/11/1 64/12/1
f 65/13/1 66/14/1 67/6/1 68/5/1
f 69/13/1 70/14/1 71/6/1 72/5/1
f 73/13/1 74/14/1 75/6/1 76/5/1
f 77/13/1 78/14/1 79/6/1 80/5/1
f 81/13/1 82/14/1 83/6/1 84/5/1
f 85/13/1 86/14/1 87/6/1 88/5/1
f 89/13/1 90/14/1 91/6/1 92/5/1
f 93/13/1 94/14/1 95/6/1 96/5/1
f 97/13/1 98/14/1 99/6/1 100/5/1
f 101/13/1 102/14/1 103/6/1 104/5/1
f 105/13/1 106/14/1 107/6/1 108/5/1
f 109/13/1 110/14/1 111/6/1 112/5/1
f 113/13/1 114/14/1 115/6/1 116/5/1
f 117/13/1 118/14/1 119/6/1 120/5/1
f 121/13/1 122/14/1 123/6/1 124/5/1
f 125/13/1 126/14/1 127/6/1 128/5/1
f 129/15/1 130/16/1 131/14/1 132/13/1
f 133/15/1 134/16/1 135/14/1 136/13/1
f 137/15/1 138/16/1 139/14/1 140/13/1
f 141/15/1 142/16/1 143/14/1 144/13/1
f 145/15/1 146/16/1 147/14/1 148/13/1
f 149/15/1 150/16/1 151/14/1 152/13/1
f 153/15/1 154/16/1 155/14/1 156/13/1
f 157/15/1 158/16/1 159/14/1 160/13/1
f 161/15/1 162/16/1 163/14/1 164/13/1
f 165/15/1 166/16/1 167/14/1 168/13/1
f 169/15/1 170/16/1 171/14/1 172/13/1
f 173/15/1 174/16/1 175/14/1 176/13/1
f 177/15/1 178/16/1 179/14/1 180/13/1
f 181/15/1 182/16/1 183/14/1 184/13/1
f 185/15/1 186/16/1 187/14/1 188/13/1
f 189/15/1 190/16/1 191/14/1 192/13/1
f 193/17/1 194/18/1 195/19/1 196/20/1
f 197/17/1 198/18/1 199/19/1 200/20/1
f 201/17/1 202/18/1 203/19/1 204/20/1
f 205/17/1 206/18/1 207/19/1 208/20/1
f 209/17/1 210/18/1 211/19/1 212/20/1
f 213/17/1 214/18/1 215/19/1 216/20/1
f 217/17/1 218/18/1 219/19/1 220/20/1
f 221/17/1 222/18/1 223/19/1 224/20/1
f 225/17/1 226/18/1 227/19/1 228/20/1
f 229/17/1 230/18/1 231/19/1 232/20/1
f 233/21/1 234/22/1 235/23/1 236/24/1
f 237/21/1 238/22/1 239/23/1 240/24/1
f 241/21/1 242/22/1 243/23/1 244/24/1
f 245/21/1 246/22/1 247/23/1 248/24/1
f 249/21/1 250/22/1 251/23/1 252/24/1
f 253/21/1 254/22/1 255/23/1 256/24/1
f 257/21/1 258/22/1 259/23/1 260/24/1
f 261/11/1 262/25/1 263/22/1 264/21/1
f 265/11/1 266/25/1 267/22/1 268/21/1
f 269/11/1 270/25/1 271/22/1 272/21/1
f 273/11/1 274/25/1 275/22/1 276/21/1
f 277/11/1 278/25/1 279/22/1 280/21/1
f 281/11/1 282/25/1 283/22/1 284/21/1
f 285/11/1 286/25/1 287/22/1 288/21/1

